<svg xmlns="http://www.w3.org/2000/svg" version="1.1" xmlns:xlink="http://www.w3.org/1999/xlink" width="512" height="512" x="0" y="0" viewBox="0 0 48 48" style="enable-background:new 0 0 512 512" xml:space="preserve" class=""><g><g data-name="Layer 2"><circle cx="24" cy="34.56" r="3.56" fill="#ef4242" opacity="1" data-original="#000000" class=""></circle><circle cx="36" cy="24" r="3.56" fill="#ef4242" opacity="1" data-original="#000000" class=""></circle><path d="M24 0a24 24 0 1 0 24 24A24 24 0 0 0 24 0Zm16.45 9.41a28.68 28.68 0 0 1-5.75 2A21.64 21.64 0 0 0 30 2.83a22.08 22.08 0 0 1 10.45 6.58ZM25 2.11c3.16.66 6 4.41 7.7 9.75a47 47 0 0 1-7.7.76ZM6.27 11a24.49 24.49 0 0 0 2.63 1.15 5.41 5.41 0 0 1 .46-2c-.63-.15-1.25-.45-1.81-.73A22 22 0 0 1 18 2.83a17.53 17.53 0 0 0-2.88 4.1 5.5 5.5 0 0 1 2 .64c1.62-3 3.66-5 5.89-5.46v10.53c-1 0-2-.08-3-.17a5.57 5.57 0 0 1-.38 2c1.11.09 2.23.16 3.38.18V23h-9.5a42.81 42.81 0 0 1 .42-5 5.61 5.61 0 0 1-2-.55 47 47 0 0 0-.42 5.55H2a21.8 21.8 0 0 1 4.27-12Zm0 26A21.8 21.8 0 0 1 2 25h9.48a43 43 0 0 0 1.25 9.65A29.53 29.53 0 0 0 6.27 37Zm1.28 1.58a28.65 28.65 0 0 1 5.75-2 21.64 21.64 0 0 0 4.7 8.59 22 22 0 0 1-10.45-6.59ZM30 45.17a21.64 21.64 0 0 0 4.72-8.59 28.65 28.65 0 0 1 5.75 2A22 22 0 0 1 30 45.17ZM41.73 37a29.53 29.53 0 0 0-6.49-2.35 38.85 38.85 0 0 0 .92-5.1H36a5.3 5.3 0 0 1-1.83-.32 37.3 37.3 0 0 1-.92 5c-1.21-.24-2.48-.42-3.77-.56a5.29 5.29 0 0 1 .08.9 5.62 5.62 0 0 1-.11 1.1c1.11.13 2.2.28 3.25.48-1.7 5.33-4.53 9.08-7.7 9.74V40a5.6 5.6 0 0 1-2 0v5.86c-3.17-.66-6-4.41-7.7-9.75 1.05-.2 2.14-.35 3.25-.48a5.62 5.62 0 0 1-.11-1.1 5.29 5.29 0 0 1 .08-.9c-1.29.14-2.56.32-3.77.56A41.32 41.32 0 0 1 13.51 25H23v4.1a5 5 0 0 1 2 0V25h5.53a5.6 5.6 0 0 1 0-2H25v-8.38a48.12 48.12 0 0 0 8.25-.84 38.64 38.64 0 0 1 .92 5 5.3 5.3 0 0 1 1.83-.34h.16a38.85 38.85 0 0 0-.92-5.1A30.25 30.25 0 0 0 41.73 11 21.8 21.8 0 0 1 46 23h-4.5a5.6 5.6 0 0 1 0 2H46a21.8 21.8 0 0 1-4.27 12Z" fill="#ef4242" opacity="1" data-original="#000000" class=""></path><circle cx="14.44" cy="12.44" r="3.56" fill="#ef4242" opacity="1" data-original="#000000" class=""></circle></g></g></svg>