<svg xmlns="http://www.w3.org/2000/svg" version="1.1" xmlns:xlink="http://www.w3.org/1999/xlink" width="512" height="512" x="0" y="0" viewBox="0 0 512 512" style="enable-background:new 0 0 512 512" xml:space="preserve"><g><path d="M504.5 357.72V240.59c0-4.08-.83-8.11-2.45-11.86l-38.95-90.47a10 10 0 0 0-9.18-6.05H320.99v214.28" style="stroke-width:15;stroke-linecap:round;stroke-linejoin:round;stroke-miterlimit:10;" fill="none" stroke="#ffffff" stroke-width="15" stroke-linecap="round" stroke-linejoin="round" stroke-miterlimit="10" data-original="#000000" opacity="1"></path><path d="M66.02 383.19H17.5c-5.52 0-10-4.48-10-10v-79.51h215.78l32.63 47.68a11.78 11.78 0 0 0 9.72 5.13h99.29M279.64 383.19H153.92M362.22 383.19h-47.58M447.42 346.49h57.08v26.7c0 5.52-4.48 10-10 10h-44.38" style="stroke-width:15;stroke-linecap:round;stroke-linejoin:round;stroke-miterlimit:10;" fill="none" stroke="#ffffff" stroke-width="15" stroke-linecap="round" stroke-linejoin="round" stroke-miterlimit="10" data-original="#000000" opacity="1"></path><path d="M109.967 321.458c-25.681 0-46.5 20.818-46.5 46.499s20.819 46.501 46.5 46.501 46.5-20.82 46.5-46.501-20.819-46.499-46.5-46.499zM406.17 321.458c-25.681 0-46.5 20.818-46.5 46.499s20.819 46.501 46.5 46.501 46.5-20.82 46.5-46.501-20.819-46.499-46.5-46.499z" style="stroke-width:15;stroke-linecap:round;stroke-linejoin:round;stroke-miterlimit:10;" fill="none" stroke="#ffffff" stroke-width="15" stroke-linecap="round" stroke-linejoin="round" stroke-miterlimit="10" data-original="#000000" opacity="1"></path><path d="M109.967 352.959c-8.284 0-15 6.716-15 15 0 8.284 6.716 15 15 15s15-6.716 15-15c0-8.285-6.716-15-15-15zM406.17 352.959c-8.284 0-15 6.716-15 15 0 8.284 6.716 15 15 15s15-6.716 15-15c0-8.285-6.716-15-15-15zM66.473 97.541H17.5c-5.523 0-10 4.477-10 10V293.68h313.487V107.541c0-5.523-4.477-10-10-10H101.473M50.269 132.213v121.528M95.859 132.213v121.528M141.449 132.213v121.528M187.039 132.213v121.528M232.629 132.213v121.528M278.219 132.213v121.528M472.994 161.232h-79.39a4.407 4.407 0 0 0-4.407 4.407v35.998c0 2.103.883 4.11 2.433 5.532l28.415 26.054a7.505 7.505 0 0 0 5.072 1.973h78.885M504.5 267.247h-43.758a5 5 0 0 0-5 5v30.651a5 5 0 0 0 5 5H504.5" style="stroke-width:15;stroke-linecap:round;stroke-linejoin:round;stroke-miterlimit:10;" fill="none" stroke="#ffffff" stroke-width="15" stroke-linecap="round" stroke-linejoin="round" stroke-miterlimit="10" data-original="#000000" opacity="1"></path></g></svg>