<svg xmlns="http://www.w3.org/2000/svg" version="1.1" xmlns:xlink="http://www.w3.org/1999/xlink" width="512" height="512" x="0" y="0" viewBox="0 0 64 64" style="enable-background:new 0 0 512 512" xml:space="preserve" class=""><g><path d="M52.08 39.68c-1.03 0-1.87.84-1.87 1.87s.84 1.87 1.87 1.87 1.87-.84 1.87-1.87-.84-1.87-1.87-1.87zm-.13 1.87c0-.07.06-.13.13-.13s.13.06.13.13c-.01.14-.26.14-.26 0zM24.11 40.28c-1.03 0-1.87.84-1.87 1.87s.84 1.87 1.87 1.87 1.87-.84 1.87-1.87-.83-1.87-1.87-1.87zm-.12 1.87c0-.07.06-.13.13-.13s.13.06.13.13c-.01.15-.26.15-.26 0zM12.41 40.28c-1.03 0-1.87.84-1.87 1.87s.84 1.87 1.87 1.87 1.87-.84 1.87-1.87-.84-1.87-1.87-1.87zm-.13 1.87c0-.07.06-.13.13-.13s.13.06.13.13c0 .15-.26.15-.26 0z" fill="#ef4242" opacity="1" data-original="#000000"></path><path d="M62 36.35V20.74c0-.13-.03-.25-.07-.37a.913.913 0 0 0-.15-.23c-.02-.03-.04-.07-.06-.1l-4.74-4.75c-.2-.2-.46-.3-.73-.29H42.11c-.55 0-1 .45-1 1v18.85H3c-.55 0-1 .45-1 1v5.71c0 .55.45 1 1 1h2.58c.2 3.58 3.19 6.44 6.83 6.44 2.48 0 4.64-1.33 5.84-3.3A6.83 6.83 0 0 0 24.1 49c3.65 0 6.63-2.86 6.83-6.45h14.25c.49 3.31 3.33 5.86 6.77 5.86 3.43 0 6.28-2.55 6.76-5.86H61c.55 0 1-.45 1-1zm-2-8.58H49.61v-6H60zm-18.89 9.08v3.71H30.78l-.03-.09c-.08-.33-.18-.64-.31-.95-.02-.04-.04-.08-.05-.12-.13-.31-.29-.6-.46-.88-.01-.01-.01-.02-.02-.03-.18-.28-.38-.55-.6-.8-.03-.04-.06-.08-.09-.11-.21-.24-.44-.46-.69-.66a.435.435 0 0 0-.07-.06h12.65zm-21.34 0c-.02.02-.03.04-.05.05-.26.22-.51.46-.74.72-.02.03-.05.06-.07.08-.23.27-.44.56-.63.86 0 .01-.01.01-.01.02a.138.138 0 0 1-.03-.04c-.18-.29-.38-.57-.6-.83-.03-.04-.06-.08-.1-.12-.22-.25-.46-.48-.72-.7l-.06-.06h3.01zM4 36.85h4.07l-.05.05c-.26.21-.5.44-.72.69-.02.02-.03.04-.05.06a6.83 6.83 0 0 0-1.14 1.81c0 .01-.01.02-.01.02-.14.32-.24.66-.33 1.01-.01.02-.02.04-.02.06H4zM12.41 47c-2.68 0-4.85-2.17-4.85-4.84 0-.17.01-.33.03-.51a4.827 4.827 0 0 1 4.83-4.35 4.84 4.84 0 0 1 4.82 4.36c.02.16.03.33.03.49A4.87 4.87 0 0 1 12.41 47zm11.7 0c-2.68 0-4.86-2.17-4.86-4.84 0-.17.01-.34.03-.51.25-2.48 2.33-4.35 4.83-4.35s4.57 1.87 4.83 4.36c.02.16.03.33.03.49 0 2.68-2.18 4.85-4.86 4.85zm27.85-.59c-2.68 0-4.85-2.18-4.86-4.85 0-2.67 2.18-4.85 4.85-4.85 1.87 0 3.48 1.08 4.29 2.63.35.67.56 1.42.56 2.22a4.84 4.84 0 0 1-4.84 4.85zm6.78-5.86c-.01-.08-.03-.15-.04-.23-.02-.08-.03-.17-.05-.25-.03-.13-.06-.26-.1-.39a6.082 6.082 0 0 0-.21-.63c-.03-.07-.05-.15-.09-.22-.06-.13-.12-.26-.19-.39-.03-.06-.06-.13-.09-.19-.09-.16-.18-.31-.28-.46-.06-.09-.12-.17-.18-.26-.08-.1-.15-.21-.23-.31-.07-.09-.15-.17-.22-.25a3.605 3.605 0 0 0-.46-.46c-.06-.06-.12-.12-.19-.17l-.3-.24c-.06-.05-.12-.1-.19-.14-.11-.08-.22-.15-.33-.22-.06-.04-.12-.08-.19-.11-.12-.07-.24-.13-.36-.2l-.18-.09c-.13-.06-.26-.12-.39-.17a3.25 3.25 0 0 1-.17-.06c-.14-.05-.28-.1-.43-.14-.05-.01-.1-.03-.16-.04-.15-.04-.31-.08-.47-.11-.04-.01-.07-.01-.11-.02a6.42 6.42 0 0 0-1.16-.11c-.37 0-.73.04-1.09.09l-.21.03c-.13.02-.26.06-.38.09l-.25.06c-.12.03-.23.07-.35.11-.09.03-.18.06-.26.1-.11.04-.21.09-.32.14-.09.04-.18.08-.26.13-.1.05-.2.1-.29.16-.09.05-.17.1-.26.16l-.27.18c-.09.06-.17.12-.25.19-.08.06-.17.13-.25.2s-.16.14-.24.22c-.07.07-.15.14-.22.21-.08.08-.16.17-.23.25-.06.07-.13.14-.19.21-.09.11-.17.22-.25.33-.06.09-.13.18-.19.27-.09.14-.18.28-.26.43l-.12.24c-.05.11-.11.21-.16.32-.04.09-.07.19-.11.28-.04.1-.08.21-.12.32l-.09.3c-.03.11-.06.21-.08.32l-.06.32c-.01.06-.03.12-.04.18H43.1V17h12.73l2.76 2.77h-10c-.55 0-1 .45-1 1v8c0 .55.45 1 1 1H60v2.08l-2.19-1.16c-.49-.26-1.09-.07-1.35.42s-.07 1.09.42 1.35L60 34.12v.65l-1.2-.54a1 1 0 0 0-.82 1.82l2.02.92v3.58z" fill="#ef4242" opacity="1" data-original="#000000"></path></g></svg>