<svg xmlns="http://www.w3.org/2000/svg" version="1.1" xmlns:xlink="http://www.w3.org/1999/xlink" width="512" height="512" x="0" y="0" viewBox="0 0 512 512" style="enable-background:new 0 0 512 512" xml:space="preserve" class=""><g><path d="M172.862 324.928c16.569 0 30 13.431 30 30 0 16.569-13.431 30-30 30s-30-13.431-30-30c0-16.569 13.431-30 30-30zm264.138 0c16.569 0 30 13.431 30 30 0 16.569-13.431 30-30 30-16.569 0-30-13.431-30-30 0-16.569 13.431-30 30-30zm-354.138 0c16.569 0 30 13.431 30 30 0 16.569-13.431 30-30 30s-30-13.431-30-30c0-16.569 13.431-30 30-30zM497 200.104h-93.815v54.744H504.5M474.5 309.929h30" style="fill-rule:evenodd;clip-rule:evenodd;stroke-width:15.0001;stroke-miterlimit:22.9256;" fill-rule="evenodd" clip-rule="evenodd" fill="none" stroke="#ef4242" stroke-width="15.0001" stroke-miterlimit="22.9256" data-original="#000000" opacity="1" class=""></path><path d="M7.5 324.928h365.685V157.071h73.282L497 200.104l7.5 54.744v100.08H467M395.684 284.847h30M156.593 165.666v120.667m-75 0V165.666m37.5 120.667V165.666m149.999 120.667V165.666m-37.5 0v120.667m-37.5 0V165.666" style="fill-rule:evenodd;clip-rule:evenodd;stroke-width:15.0001;stroke-miterlimit:22.9256;" fill-rule="evenodd" clip-rule="evenodd" fill="none" stroke="#ef4242" stroke-width="15.0001" stroke-miterlimit="22.9256" data-original="#000000" opacity="1" class=""></path><path d="M343.185 324.928V127.072H7.5v37.5m0 15v175.356h45.362m60 0h30m60 0h151.639m15 0H407M313.185 164.571v-15m0 45.001v-15" style="fill-rule:evenodd;clip-rule:evenodd;stroke-width:15.0001;stroke-miterlimit:22.9256;" fill-rule="evenodd" clip-rule="evenodd" fill="none" stroke="#ef4242" stroke-width="15.0001" stroke-miterlimit="22.9256" data-original="#000000" opacity="1" class=""></path></g></svg>