<svg xmlns="http://www.w3.org/2000/svg" version="1.1" xmlns:xlink="http://www.w3.org/1999/xlink" width="512" height="512" x="0" y="0" viewBox="0 0 128 128" style="enable-background:new 0 0 512 512" xml:space="preserve" class=""><g><circle cx="8.5" cy="54.5" r="2" fill="#ef4242" opacity="1" data-original="#000000"></circle><circle cx="14.969" cy="57.031" r="2" fill="#ef4242" opacity="1" data-original="#000000"></circle><circle cx="21.469" cy="59.469" r="2" fill="#ef4242" opacity="1" data-original="#000000"></circle><circle cx="100.008" cy="56.015" r="2" fill="#ef4242" opacity="1" data-original="#000000"></circle><circle cx="105.008" cy="48.974" r="2" fill="#ef4242" opacity="1" data-original="#000000"></circle><circle cx="110.008" cy="42.015" r="2" fill="#ef4242" opacity="1" data-original="#000000"></circle><circle cx="33.969" cy="102.031" r="2" fill="#ef4242" opacity="1" data-original="#000000"></circle><circle cx="38.969" cy="95.99" r="2" fill="#ef4242" opacity="1" data-original="#000000"></circle><circle cx="43.969" cy="89.99" r="2" fill="#ef4242" opacity="1" data-original="#000000"></circle><path d="M115.816 87.377a2.544 2.544 0 0 0-.64-2.817L93.047 63.233A4.35 4.35 0 0 0 87 63.207L64.833 84.572a2.544 2.544 0 0 0-.653 2.806A2.72 2.72 0 0 0 66.792 89H70v19.097A5.959 5.959 0 0 0 76 114h28a5.959 5.959 0 0 0 6-5.903V89h3.276a2.695 2.695 0 0 0 2.54-1.623ZM86 110V99h8v11Zm18 0h-6V98.647A3.685 3.685 0 0 0 94.286 95h-8.572A3.685 3.685 0 0 0 82 98.647V110h-6a1.956 1.956 0 0 1-2-1.903V89h.01a2 2 0 0 0 0-4h-3.858l19.62-18.912a.368.368 0 0 1 .488.013L109.868 85h-3.857a2 2 0 0 0-.011 3.999v19.098a1.956 1.956 0 0 1-2 1.903Z" fill="#ef4242" opacity="1" data-original="#000000"></path><path d="M90 76a6 6 0 1 0 6 6 6.007 6.007 0 0 0-6-6Zm0 8a2 2 0 1 1 2-2 2.002 2.002 0 0 1-2 2ZM38.08 44.658c.56 1.02 12.467 21.364 12.467 21.364a3.996 3.996 0 0 0 6.904-.01s11.976-20.553 11.998-20.59A23.659 23.659 0 0 0 73 33.881C73 22.918 64.477 14 54 14s-19 8.919-19 19.882a21.181 21.181 0 0 0 3.053 10.792ZM54 18c8.271 0 15 7.125 15 15.881a18.468 18.468 0 0 1-2.974 9.47l-12.027 20.65-12.494-21.348A17.238 17.238 0 0 1 39 33.882C39 25.125 45.729 18 54 18Z" fill="#ef4242" opacity="1" data-original="#000000"></path><path d="M54 40a7 7 0 1 0-7-7 7.008 7.008 0 0 0 7 7Zm0-10a3 3 0 1 1-3 3 3.003 3.003 0 0 1 3-3ZM69.898 52.596l-2.047 3.513 15.102 5.458c.8-.784 1.1-1.079 1.218-1.193a8.212 8.212 0 0 1 2.552-1.697ZM66 106H6a2.002 2.002 0 0 1-2-2v-9.276l17.042-20.45L61.077 90.48a6.67 6.67 0 0 1-.585-1.093 6.602 6.602 0 0 1-.386-3.615L23.73 71.046l14.76-17.712c-.876-1.5-1.579-2.71-2.14-3.68L4 88.475V38a2.002 2.002 0 0 1 2-2h25.105A24.003 24.003 0 0 1 31 33.882c0-.634.031-1.26.078-1.882H6a6.007 6.007 0 0 0-6 6v66a6.007 6.007 0 0 0 6 6h60.19a9.808 9.808 0 0 1-.19-1.908ZM122 32H76.922c.047.622.078 1.248.078 1.881 0 .697-.041 1.405-.112 2.119H122a2.002 2.002 0 0 1 2 2v34.15l-25.564-9.24 6.87 6.737L124 76.404V104a2.002 2.002 0 0 1-2 2h-8v2.092a9.808 9.808 0 0 1-.19 1.908H122a6.007 6.007 0 0 0 6-6V38a6.007 6.007 0 0 0-6-6Z" fill="#ef4242" opacity="1" data-original="#000000"></path></g></svg>