<svg xmlns="http://www.w3.org/2000/svg" version="1.1" xmlns:xlink="http://www.w3.org/1999/xlink" width="512" height="512" x="0" y="0" viewBox="0 0 91 91" style="enable-background:new 0 0 512 512" xml:space="preserve" class=""><g><path d="M26.59 63.09h-9.22a1.5 1.5 0 0 1 0-3h9.22a1.5 1.5 0 1 1 0 3zM64 63.09H43.86a1.5 1.5 0 0 1 0-3H64a1.5 1.5 0 0 1 0 3zM88.47 63.09h-7.22a1.5 1.5 0 0 1 0-3H87V48.47a4.63 4.63 0 0 0-2-3.82l-4.6-3.11a1.64 1.64 0 0 1-.41-.42L69.07 24.25a5 5 0 0 0-4.24-2.31H23a1.5 1.5 0 0 1 0-3h41.83a8 8 0 0 1 6.76 3.68l10.75 16.61 4.3 2.94a7.63 7.63 0 0 1 3.36 6.3v13.12a1.5 1.5 0 0 1-1.53 1.5z" fill="#ef4242" opacity="1" data-original="#000000" class=""></path><path d="M35.22 72.06a10.14 10.14 0 1 1 10.14-10.14 10.14 10.14 0 0 1-10.14 10.14zm0-17.28a7.14 7.14 0 1 0 7.14 7.14 7.15 7.15 0 0 0-7.14-7.14zM72.61 72.06a10.14 10.14 0 1 1 10.14-10.14 10.15 10.15 0 0 1-10.14 10.14zm0-17.28a7.14 7.14 0 1 0 7.14 7.14 7.16 7.16 0 0 0-7.14-7.14zM81.25 41.8H56.92a1.5 1.5 0 0 1-1.5-1.5V20.44a1.5 1.5 0 0 1 1.5-1.5h7.66a8.48 8.48 0 0 1 7.15 3.89l10.78 16.66a1.49 1.49 0 0 1-1.26 2.31zm-22.83-3h20.07l-9.28-14.34a5.49 5.49 0 0 0-4.63-2.52h-6.16zM28.45 32.89H12.77a1.5 1.5 0 1 1 0-3h15.68a1.5 1.5 0 1 1 0 3zM21.39 43.77H2.76a1.5 1.5 0 1 1 0-3h18.63a1.5 1.5 0 0 1 0 3zM19.67 52.87H8.48a1.5 1.5 0 1 1 0-3h11.19a1.5 1.5 0 0 1 0 3z" fill="#ef4242" opacity="1" data-original="#000000" class=""></path></g></svg>